<svg width="43" height="50" viewBox="0 0 43 50" fill="none" xmlns="http://www.w3.org/2000/svg">
<path d="M21.4764 24.5444C28.2548 24.5444 33.7486 19.0507 33.7486 12.2722C33.7486 5.49373 28.2548 0 21.4764 0C14.6979 0 9.20415 5.49373 9.20415 12.2722C9.20415 19.0507 14.6979 24.5444 21.4764 24.5444ZM30.0669 27.6125H28.4658C26.3373 28.5904 23.9692 29.1465 21.4764 29.1465C18.9836 29.1465 16.625 28.5904 14.487 27.6125H12.8858C5.77177 27.6125 0 33.3842 0 40.4983V44.4867C0 47.0275 2.06135 49.0888 4.60208 49.0888H38.3506C40.8914 49.0888 42.9527 47.0275 42.9527 44.4867V40.4983C42.9527 33.3842 37.181 27.6125 30.0669 27.6125Z" fill="#134B70"/>
</svg>
